<svg width="26" height="24" viewBox="0 0 26 24" fill="none" xmlns="http://www.w3.org/2000/svg">
<path d="M6.33203 9.33203L12.9987 1.33203L19.6654 9.33203" stroke="#828282" stroke-width="2" stroke-linecap="round" stroke-linejoin="round"/>
<path d="M25 9.33203L22.3333 19.9987C22.2087 20.763 21.8735 21.4484 21.3863 21.9356C20.899 22.4229 20.2905 22.6811 19.6667 22.6654H6.33333C5.70948 22.6811 5.10096 22.4229 4.61371 21.9356C4.12646 21.4484 3.79134 20.763 3.66667 19.9987L1 9.33203H25Z" stroke="#828282" stroke-width="2" stroke-linecap="round" stroke-linejoin="round"/>
<path d="M12.9987 18.6654C14.4715 18.6654 15.6654 17.4715 15.6654 15.9987C15.6654 14.5259 14.4715 13.332 12.9987 13.332C11.5259 13.332 10.332 14.5259 10.332 15.9987C10.332 17.4715 11.5259 18.6654 12.9987 18.6654Z" stroke="#828282" stroke-width="2" stroke-linecap="round" stroke-linejoin="round"/>
</svg>
