<svg width="56" height="56" viewBox="0 0 56 56" fill="none" xmlns="http://www.w3.org/2000/svg">
<path d="M0 24C0 12.6863 0 7.02944 3.51472 3.51472C7.02944 0 12.6863 0 24 0H32C43.3137 0 48.9706 0 52.4853 3.51472C56 7.02944 56 12.6863 56 24V32C56 43.3137 56 48.9706 52.4853 52.4853C48.9706 56 43.3137 56 32 56H24C12.6863 56 7.02944 56 3.51472 52.4853C0 48.9706 0 43.3137 0 32V24Z" fill="#F4F4F4"/>
<path d="M21.332 25.332L27.9987 17.332L34.6654 25.332" stroke="#828282" stroke-width="2" stroke-linecap="round" stroke-linejoin="round"/>
<path d="M40 25.332L37.3333 35.9987C37.2087 36.763 36.8735 37.4484 36.3863 37.9356C35.899 38.4229 35.2905 38.6811 34.6667 38.6654H21.3333C20.7095 38.6811 20.101 38.4229 19.6137 37.9356C19.1265 37.4484 18.7913 36.763 18.6667 35.9987L16 25.332H40Z" stroke="#828282" stroke-width="2" stroke-linecap="round" stroke-linejoin="round"/>
<path d="M27.9987 34.6654C29.4715 34.6654 30.6654 33.4715 30.6654 31.9987C30.6654 30.5259 29.4715 29.332 27.9987 29.332C26.5259 29.332 25.332 30.5259 25.332 31.9987C25.332 33.4715 26.5259 34.6654 27.9987 34.6654Z" stroke="#828282" stroke-width="2" stroke-linecap="round" stroke-linejoin="round"/>
</svg>
