<svg width="48" height="48" viewBox="0 0 48 48" fill="none" xmlns="http://www.w3.org/2000/svg">
<circle cx="24" cy="24" r="24" fill="#F6F6F6"/>
<path fill-rule="evenodd" clip-rule="evenodd" d="M27.7109 15.0565C26.055 14.9793 21.9533 14.983 20.2958 15.0565C18.8394 15.1248 17.5546 15.4765 16.5189 16.5123C14.9699 18.0612 14.9842 20.0918 15.0044 22.9528C15.0067 23.289 15.0092 23.6367 15.0092 23.9964C15.0092 24.333 15.0074 24.6584 15.0056 24.973C14.9892 27.9302 14.9781 29.9397 16.5189 31.4805C18.0707 33.0316 20.1237 33.0164 22.9524 32.9953C23.2913 32.9928 23.6413 32.9902 24.003 32.9902H24.0518C27.4822 32.9902 28.6737 32.9902 29.8942 32.5177C31.5614 31.8705 32.8199 30.3803 32.9429 27.7036C33.0209 26.0468 33.0164 21.9459 32.9429 20.2884C32.7944 17.1288 31.0986 15.2125 27.7109 15.0565ZM24 27.8565C21.8683 27.8565 20.1429 26.1301 20.1429 23.9994C20.1429 21.8687 21.8693 20.1424 24 20.1424C26.1307 20.1424 27.8571 21.8687 27.8571 23.9994C27.858 26.1301 26.1316 27.8565 24 27.8565ZM29.8837 19.1957C29.8837 19.7918 29.4005 20.275 28.8045 20.275C28.2084 20.275 27.7252 19.7918 27.7252 19.1957C27.7252 18.5997 28.2084 18.1165 28.8045 18.1165C29.4005 18.1165 29.8837 18.5997 29.8837 19.1957Z" fill="#00AEC7"/>
</svg>
