<svg width="64" height="40" viewBox="0 0 64 40" fill="none" xmlns="http://www.w3.org/2000/svg">
<path d="M58.6822 39.9922H0L5.31862 22.5625H64L58.6822 39.9922Z" fill="#00AEC7"/>
<path d="M25.0339 16.0276V5.12853H29.8155V8.73841H32.0144V5.12853H36.7952V16.0276H32.0144V12.4162H29.8155V16.0276H25.0339ZM48.6944 9.96729L50.5102 5.12853H45.848L44.3966 8.73922H43.5418V5.12853H38.7602V16.0284H43.5418V12.417H44.6844L46.1366 16.0284H50.9086L48.6944 9.96729ZM57.6738 12.7078C56.5199 12.7078 56.249 11.8037 56.249 11.0992C56.249 10.3979 56.5199 9.51484 57.6738 9.51484C58.8042 9.51484 59.076 10.3979 59.076 11.0992C59.076 11.8037 58.8042 12.7078 57.6738 12.7078ZM59.3929 6.34206C57.9447 6.34206 56.9505 6.90681 56.2723 7.63315C56.2949 6.70402 56.9722 5.72964 57.8995 5.34587C59.505 4.66478 61.3595 5.14065 62.6715 3.98449V0.0078125C62.6715 0.0078125 61.5498 0.469146 59.4808 0.713144C58.2374 0.860189 56.4739 1.25608 54.9153 2.24096C52.9696 3.46418 51.5907 5.4808 51.5907 9.55928C51.5907 14.8844 54.6653 16.3791 57.8318 16.3791C60.9523 16.3791 63.7342 14.7939 63.7342 11.3036C63.7342 7.95067 61.7442 6.34206 59.3929 6.34206ZM16.8012 12.5535C16.144 12.5535 15.5997 12.1665 15.3957 11.7811V9.37426C15.6223 8.98806 16.144 8.60267 16.8012 8.60267C17.9559 8.60267 18.455 9.60129 18.455 10.5781C18.455 10.6993 18.4469 10.8229 18.4308 10.9425C18.3211 11.7884 17.8115 12.5535 16.8012 12.5535ZM23.3721 10.5781C23.3721 7.89734 22.1577 5.36364 19.421 4.85707C19.3589 4.84576 19.296 4.83525 19.2315 4.82636C19.071 4.80293 18.9049 4.78435 18.7332 4.77546C18.6195 4.769 18.5042 4.76577 18.3865 4.76577C18.2857 4.76577 18.1865 4.76819 18.0873 4.77385C18.0833 4.77385 18.08 4.77385 18.0752 4.77546C17.2003 4.82717 16.4327 5.10026 15.8473 5.51069C15.4433 5.78054 15.1014 6.10291 14.8297 6.44467L14.4273 5.12853H10.6367V20.3816H15.4183V15.3692C15.7538 15.6697 16.1763 15.9291 16.6851 16.1101C17.1584 16.3023 17.7027 16.3912 18.3865 16.3912C21.8545 16.3912 23.3721 13.5747 23.3721 10.5781Z" fill="#333E48"/>
</svg>
