<svg width="48" height="48" viewBox="0 0 48 48" fill="none" xmlns="http://www.w3.org/2000/svg">
<circle cx="24" cy="24" r="24" fill="#F6F6F6"/>
<path fill-rule="evenodd" clip-rule="evenodd" d="M26.2001 19.16C26.2001 17.9817 25.2071 17.0234 23.9864 17.0234C22.7666 17.0234 21.7726 17.9817 21.7726 19.16C21.7726 20.3375 22.7666 21.2963 23.9864 21.2963C25.2071 21.2963 26.2001 20.3375 26.2001 19.16ZM29.333 19.1613C29.333 22.0066 26.9356 24.3211 23.9864 24.3211C21.0378 24.3211 18.6398 22.0066 18.6398 19.1613C18.6398 16.3151 21.0378 14 23.9864 14C26.9356 14 29.333 16.3151 29.333 19.1613ZM29.268 27.2925C28.3012 27.8786 27.2516 28.2943 26.1633 28.5336L29.1522 31.419C29.7645 32.0088 29.7645 32.9667 29.1522 33.5572C28.5405 34.1476 27.5491 34.1476 26.9381 33.5572L23.9995 30.7218L21.0633 33.5572C20.7572 33.8521 20.356 33.9997 19.9549 33.9997C19.5543 33.9997 19.1538 33.8521 18.8477 33.5572C18.236 32.9667 18.236 32.0095 18.847 31.419L21.8362 28.5336C20.7479 28.2943 19.6983 27.878 18.7315 27.2925C17.9999 26.8472 17.7801 25.9143 18.2411 25.2075C18.7008 24.4997 19.6676 24.2866 20.4005 24.7319C22.5893 26.061 25.409 26.0613 27.599 24.7319C28.3319 24.2866 29.2984 24.4997 29.7591 25.2075C30.22 25.9137 29.9996 26.8472 29.268 27.2925Z" fill="#00AEC7"/>
</svg>
