<svg width="48" height="48" viewBox="0 0 48 48" fill="none" xmlns="http://www.w3.org/2000/svg">
<circle cx="24" cy="24" r="24" fill="#F6F6F6"/>
<path fill-rule="evenodd" clip-rule="evenodd" d="M24.2256 20.2563L24.2668 20.9483L23.5803 20.8636C21.0817 20.5387 18.8989 19.4371 17.0456 17.5869L16.1395 16.6689L15.9061 17.3468C15.4119 18.858 15.7276 20.454 16.7573 21.5274C17.3064 22.1205 17.1828 22.2053 16.2356 21.8522C15.9061 21.7392 15.6178 21.6545 15.5903 21.6968C15.4942 21.7957 15.8237 23.0809 16.0846 23.5894C16.4415 24.2955 17.1691 24.9876 17.9654 25.3972L18.6381 25.722L17.8418 25.7361C17.073 25.7361 17.0456 25.7502 17.1279 26.0468C17.4025 26.9649 18.4871 27.9394 19.6952 28.3631L20.5463 28.6597L19.805 29.1116C18.7067 29.7613 17.4162 30.1285 16.1257 30.1567C15.508 30.1709 15 30.2274 15 30.2697C15 30.411 16.6749 31.2019 17.6496 31.5126C20.5738 32.4306 24.0471 32.0351 26.6555 30.4674C28.5089 29.3517 30.3622 27.1343 31.2271 24.9876C31.6939 23.8436 32.1607 21.7533 32.1607 20.7506C32.1607 20.1009 32.2019 20.0162 32.9707 19.2394C33.4237 18.7874 33.8493 18.2931 33.9317 18.1519C34.069 17.8835 34.0552 17.8835 33.3551 18.1236C32.1881 18.5473 32.0234 18.4908 32.6 17.8553C33.0256 17.4033 33.5335 16.5842 33.5335 16.3441C33.5335 16.3017 33.3276 16.3723 33.0942 16.4994C32.8471 16.6407 32.298 16.8525 31.8861 16.9796L31.1448 17.2197L30.4721 16.7537C30.1014 16.4994 29.5797 16.217 29.3051 16.1322C28.605 15.9345 27.5342 15.9627 26.9027 16.1887C25.1866 16.8243 24.102 18.4626 24.2256 20.2563Z" fill="#00AEC7"/>
</svg>
