<svg width="14" height="17" viewBox="0 0 14 17" fill="none" xmlns="http://www.w3.org/2000/svg">
<path fill-rule="evenodd" clip-rule="evenodd" d="M3.46447 3.46447C4.40215 2.52678 5.67392 2 7 2C8.32608 2 9.59785 2.52678 10.5355 3.46447C11.4732 4.40215 12 5.67392 12 7C12 8.94161 10.7243 10.9503 9.25671 12.581C8.54382 13.3731 7.82781 14.0298 7.28903 14.4888C7.18542 14.577 7.08863 14.6577 7 14.7305C6.91137 14.6577 6.81458 14.577 6.71097 14.4888C6.17219 14.0298 5.45618 13.3731 4.74329 12.581C3.27567 10.9503 2 8.94161 2 7C2 5.67392 2.52678 4.40215 3.46447 3.46447ZM6.41404 16.8103C6.41428 16.8105 6.41451 16.8107 7 16L7.58549 16.8107C7.23598 17.0631 6.76355 17.0628 6.41404 16.8103ZM6.41404 16.8103L7 16C7.58549 16.8107 7.58633 16.8101 7.58658 16.8099L7.58821 16.8087L7.59311 16.8051L7.60933 16.7933C7.62294 16.7833 7.6421 16.7691 7.66643 16.7509C7.7151 16.7145 7.78453 16.6619 7.87175 16.594C8.04611 16.4584 8.29213 16.2616 8.58597 16.0112C9.17219 15.5119 9.95618 14.7935 10.7433 13.919C12.2757 12.2163 14 9.72505 14 7C14 5.14348 13.2625 3.36301 11.9497 2.05025C10.637 0.737498 8.85652 0 7 0C5.14348 0 3.36301 0.737498 2.05025 2.05025C0.737498 3.36301 0 5.14348 0 7C0 9.72505 1.72433 12.2163 3.25671 13.919C4.04382 14.7935 4.82781 15.5119 5.41403 16.0112C5.70787 16.2616 5.95389 16.4584 6.12825 16.594C6.21547 16.6619 6.2849 16.7145 6.33357 16.7509C6.3579 16.7691 6.37706 16.7833 6.39067 16.7933L6.40689 16.8051L6.41179 16.8087L6.41404 16.8103ZM9 7C9 8.10457 8.10457 9 7 9C5.89543 9 5 8.10457 5 7C5 5.89543 5.89543 5 7 5C8.10457 5 9 5.89543 9 7Z" fill="#333E48"/>
</svg>
