<svg width="48" height="48" viewBox="0 0 48 48" fill="none" xmlns="http://www.w3.org/2000/svg">
<circle cx="24" cy="24" r="24" fill="#F6F6F6"/>
<path fill-rule="evenodd" clip-rule="evenodd" d="M25.0789 30.9452C25.0789 30.9452 25.476 30.8995 25.6793 30.6732C25.8655 30.4659 25.859 30.0747 25.859 30.0747C25.859 30.0747 25.8343 28.248 26.6531 27.9783C27.4601 27.7131 28.4964 29.7448 29.596 30.5261C30.4267 31.1168 31.0573 30.9875 31.0573 30.9875L33.9959 30.9452C33.9959 30.9452 35.5325 30.8471 34.804 29.5955C34.7437 29.493 34.379 28.6693 32.6197 26.9775C30.7764 25.2065 31.0239 25.493 33.2427 22.4292C34.5942 20.5635 35.1343 19.4244 34.9654 18.9374C34.8051 18.4715 33.8108 18.5952 33.8108 18.5952L30.5031 18.6164C30.5031 18.6164 30.2578 18.5818 30.076 18.6944C29.8984 18.8048 29.7833 19.0622 29.7833 19.0622C29.7833 19.0622 29.2603 20.5055 28.562 21.7337C27.0889 24.3238 26.5003 24.4609 26.2593 24.3004C25.6987 23.9248 25.8386 22.7936 25.8386 21.99C25.8386 19.479 26.2066 18.4325 25.123 18.1617C24.7636 18.0714 24.4989 18.0123 23.5789 18.0023C22.3985 17.99 21.4 18.0068 20.834 18.2932C20.4574 18.4838 20.1669 18.9095 20.3444 18.934C20.5629 18.9641 21.0578 19.0722 21.3204 19.4423C21.6593 19.9204 21.6475 20.9925 21.6475 20.9925C21.6475 20.9925 21.8422 23.9482 21.1923 24.3149C20.7469 24.5668 20.1357 24.053 18.8219 21.7025C18.1493 20.4988 17.6415 19.1681 17.6415 19.1681C17.6415 19.1681 17.5435 18.9195 17.3681 18.7858C17.1562 18.6242 16.8603 18.574 16.8603 18.574L13.7172 18.5952C13.7172 18.5952 13.2448 18.6086 13.0716 18.8215C12.9177 19.0098 13.0598 19.401 13.0598 19.401C13.0598 19.401 15.5206 25.3648 18.3075 28.3706C20.8631 31.1257 23.764 30.9452 23.764 30.9452H25.0789Z" fill="#00AEC7"/>
</svg>
