<svg width="48" height="48" viewBox="0 0 48 48" fill="none" xmlns="http://www.w3.org/2000/svg">
<circle cx="24" cy="24" r="24" fill="#F6F6F6"/>
<path d="M34.5467 18.5036C34.2932 17.5246 33.5501 16.7529 32.6078 16.4893C30.8862 16 23.9998 16 23.9998 16C23.9998 16 17.1136 16 15.392 16.4707C14.4678 16.7341 13.7066 17.5248 13.4531 18.5036C13 20.2917 13 24 13 24C13 24 13 27.727 13.4531 29.4964C13.7068 30.4752 14.4497 31.247 15.3922 31.5106C17.1317 32 24 32 24 32C24 32 30.8862 32 32.6078 31.5293C33.5502 31.2658 34.2932 30.4941 34.547 29.5152C34.9999 27.727 34.9999 24.0188 34.9999 24.0188C34.9999 24.0188 35.018 20.2917 34.5467 18.5036ZM21.8073 27.4258V20.5742L27.5337 24L21.8073 27.4258Z" fill="#00AEC7"/>
</svg>
